<svg width="500" height="500" viewBox="0 0 500 500" fill="none" xmlns="http://www.w3.org/2000/svg">
<g clip-path="url(#clip0_1446_2)">
<mask id="path-1-outside-1_1446_2" maskUnits="userSpaceOnUse" x="7" y="47" width="432" height="404" fill="black">
<rect fill="white" x="7" y="47" width="432" height="404"/>
<path d="M146.17 431H39.6364L220.034 67.3636H354.977L414.636 431H308.102L272.591 167.506H269.75L146.17 431ZM150.432 287.534H350.716L337.932 361.398H137.648L150.432 287.534Z"/>
</mask>
<path d="M146.17 431H39.6364L220.034 67.3636H354.977L414.636 431H308.102L272.591 167.506H269.75L146.17 431ZM150.432 287.534H350.716L337.932 361.398H137.648L150.432 287.534Z" fill="url(#paint0_linear_1446_2)"/>
<path d="M146.17 431V451H158.881L164.278 439.492L146.17 431ZM39.6364 431L21.7199 422.112L7.38864 451H39.6364V431ZM220.034 67.3636V47.3636H207.63L202.118 58.4754L220.034 67.3636ZM354.977 67.3636L374.713 64.1257L371.963 47.3636H354.977V67.3636ZM414.636 431V451H438.185L434.373 427.762L414.636 431ZM308.102 431L288.281 433.671L290.617 451H308.102V431ZM272.591 167.506L292.412 164.834L290.076 147.506H272.591V167.506ZM269.75 167.506V147.506H257.04L251.643 159.013L269.75 167.506ZM150.432 287.534V267.534H133.596L130.725 284.123L150.432 287.534ZM350.716 287.534L370.423 290.945L374.475 267.534H350.716V287.534ZM337.932 361.398V381.398H354.768L357.639 364.809L337.932 361.398ZM137.648 361.398L117.941 357.987L113.889 381.398H137.648V361.398ZM146.17 431V411H39.6364V431V451H146.17V431ZM39.6364 431L57.5528 439.888L237.951 76.2519L220.034 67.3636L202.118 58.4754L21.7199 422.112L39.6364 431ZM220.034 67.3636V87.3636H354.977V67.3636V47.3636H220.034V67.3636ZM354.977 67.3636L335.241 70.6016L394.9 434.238L414.636 431L434.373 427.762L374.713 64.1257L354.977 67.3636ZM414.636 431V411H308.102V431V451H414.636V431ZM308.102 431L327.923 428.329L292.412 164.834L272.591 167.506L252.77 170.177L288.281 433.671L308.102 431ZM272.591 167.506V147.506H269.75V167.506V187.506H272.591V167.506ZM269.75 167.506L251.643 159.013L128.063 422.508L146.17 431L164.278 439.492L287.857 175.998L269.75 167.506ZM150.432 287.534V307.534H350.716V287.534V267.534H150.432V287.534ZM350.716 287.534L331.009 284.123L318.225 357.987L337.932 361.398L357.639 364.809L370.423 290.945L350.716 287.534ZM337.932 361.398V341.398H137.648V361.398V381.398H337.932V361.398ZM137.648 361.398L157.355 364.809L170.139 290.945L150.432 287.534L130.725 284.123L117.941 357.987L137.648 361.398Z" fill="black" mask="url(#path-1-outside-1_1446_2)"/>
</g>
<defs>
<linearGradient id="paint0_linear_1446_2" x1="250" y1="-53" x2="250" y2="552" gradientUnits="userSpaceOnUse">
<stop stop-color="#0004FF"/>
<stop offset="1" stop-color="#5255FF"/>
</linearGradient>
<clipPath id="clip0_1446_2">
<rect width="500" height="500" fill="white"/>
</clipPath>
</defs>
</svg>
