<svg width="283" height="263" viewBox="0 0 283 263" fill="none" xmlns="http://www.w3.org/2000/svg">
<mask id="path-1-outside-1_1499_173" maskUnits="userSpaceOnUse" x="0" y="0" width="283" height="263" fill="black">
<rect fill="white" width="283" height="263"/>
<path d="M92.9091 248H24.7273L140.182 15.2727H226.545L264.727 248H196.545L173.818 79.3636H172L92.9091 248ZM95.6364 156.182H223.818L215.636 203.455H87.4545L95.6364 156.182Z"/>
</mask>
<path d="M92.9091 248H24.7273L140.182 15.2727H226.545L264.727 248H196.545L173.818 79.3636H172L92.9091 248ZM95.6364 156.182H223.818L215.636 203.455H87.4545L95.6364 156.182Z" fill="url(#paint0_linear_1499_173)"/>
<path d="M92.9091 248V263H102.442L106.49 254.369L92.9091 248ZM24.7273 248L11.2899 241.334L0.541478 263H24.7273V248ZM140.182 15.2727V0.27272H130.879L126.744 8.60654L140.182 15.2727ZM226.545 15.2727L241.348 12.8442L239.285 0.27272H226.545V15.2727ZM264.727 248V263H282.389L279.529 245.572L264.727 248ZM196.545 248L181.68 250.003L183.431 263H196.545V248ZM173.818 79.3636L188.684 77.3602L186.932 64.3636H173.818V79.3636ZM172 79.3636V64.3636H162.467L158.419 72.9943L172 79.3636ZM95.6364 156.182V141.182H83.0095L80.8561 153.624L95.6364 156.182ZM223.818 156.182L238.598 158.74L241.637 141.182H223.818V156.182ZM215.636 203.455V218.455H228.263L230.417 206.013L215.636 203.455ZM87.4545 203.455L72.6743 200.896L69.6354 218.455H87.4545V203.455ZM92.9091 248V233H24.7273V248V263H92.9091V248ZM24.7273 248L38.1646 254.666L153.619 21.9389L140.182 15.2727L126.744 8.60654L11.2899 241.334L24.7273 248ZM140.182 15.2727V30.2727H226.545V15.2727V0.27272H140.182V15.2727ZM226.545 15.2727L211.743 17.7012L249.925 250.428L264.727 248L279.529 245.572L241.348 12.8442L226.545 15.2727ZM264.727 248V233H196.545V248V263H264.727V248ZM196.545 248L211.411 245.997L188.684 77.3602L173.818 79.3636L158.953 81.3671L181.68 250.003L196.545 248ZM173.818 79.3636V64.3636H172V79.3636V94.3636H173.818V79.3636ZM172 79.3636L158.419 72.9943L79.3285 241.631L92.9091 248L106.49 254.369L185.581 85.733L172 79.3636ZM95.6364 156.182V171.182H223.818V156.182V141.182H95.6364V156.182ZM223.818 156.182L209.038 153.624L200.856 200.896L215.636 203.455L230.417 206.013L238.598 158.74L223.818 156.182ZM215.636 203.455V188.455H87.4545V203.455V218.455H215.636V203.455ZM87.4545 203.455L102.235 206.013L110.417 158.74L95.6364 156.182L80.8561 153.624L72.6743 200.896L87.4545 203.455Z" fill="black" mask="url(#path-1-outside-1_1499_173)"/>
<defs>
<linearGradient id="paint0_linear_1499_173" x1="159.5" y1="-62" x2="159.5" y2="325" gradientUnits="userSpaceOnUse">
<stop stop-color="#0004FF"/>
<stop offset="1" stop-color="#5255FF"/>
</linearGradient>
</defs>
</svg>
